<svg width="20" height="20" viewBox="0 0 20 20" fill="none" xmlns="http://www.w3.org/2000/svg">
<path fill-rule="evenodd" clip-rule="evenodd" d="M3.74833 3.74833C4.07943 3.41723 4.61624 3.41723 4.94734 3.74833L16.2517 15.0527C16.5828 15.3838 16.5828 15.9206 16.2517 16.2517C15.9206 16.5828 15.3838 16.5828 15.0527 16.2517L3.74833 4.94734C3.41723 4.61624 3.41723 4.07943 3.74833 3.74833Z" fill="#1F98EA"/>
<path fill-rule="evenodd" clip-rule="evenodd" d="M16.2517 3.74833C16.5828 4.07943 16.5828 4.61624 16.2517 4.94734L4.94734 16.2517C4.61624 16.5828 4.07943 16.5828 3.74833 16.2517C3.41723 15.9206 3.41723 15.3838 3.74833 15.0527L15.0527 3.74833C15.3838 3.41723 15.9206 3.41723 16.2517 3.74833Z" fill="#1F98EA"/>
</svg>
