<svg width="12" height="13" viewBox="0 0 12 13" fill="none" xmlns="http://www.w3.org/2000/svg">
<path d="M8.97837 5.72874C9.07213 5.63497 9.125 5.50761 9.125 5.375C9.125 5.24239 9.07232 5.11521 8.97855 5.02145C8.88479 4.92768 8.75761 4.875 8.625 4.875C8.49239 4.875 8.36521 4.92768 8.27145 5.02145L6 7.29289L3.72861 5.02151C3.63479 4.92768 3.50761 4.875 3.375 4.875C3.24239 4.875 3.11521 4.92768 3.02145 5.02145C2.92768 5.11521 2.875 5.24239 2.875 5.375C2.875 5.50761 2.92768 5.63479 3.02145 5.72855L5.64645 8.35355C5.74021 8.44732 5.86739 8.5 6 8.5C6.13261 8.5 6.25978 8.44732 6.35355 8.35355L8.97837 5.72874Z" fill="#1F98EA"/>
<path d="M5.5 1V8C5.5 8.27614 5.72386 8.5 6 8.5C6.27614 8.5 6.5 8.27614 6.5 8V1C6.5 0.723858 6.27614 0.5 6 0.5C5.72386 0.5 5.5 0.723858 5.5 1Z" fill="#1F98EA"/>
<path d="M1 11.5V8C1 7.72386 0.776142 7.5 0.5 7.5C0.223858 7.5 0 7.72386 0 8V11.5C0 11.9142 0.292893 12.2071 0.292893 12.2071C0.585787 12.5 1 12.5 1 12.5H11C11.4142 12.5 11.7071 12.2071 11.7071 12.2071C12 11.9142 12 11.5 12 11.5V8C12 7.72386 11.7761 7.5 11.5 7.5C11.2239 7.5 11 7.72386 11 8V11.5H1Z" fill="#1F98EA"/>
</svg>
