<svg width="133" height="46" viewBox="0 0 133 46" fill="none" xmlns="http://www.w3.org/2000/svg">
<path d="M19.5336 28.1848C22.0887 28.1848 24.1601 25.8638 24.1601 23.0006C24.1601 20.1375 22.0887 17.8164 19.5336 17.8164C16.9785 17.8164 14.9072 20.1375 14.9072 23.0006C14.9072 25.8638 16.9785 28.1848 19.5336 28.1848Z" fill="#8BC2DE"/>
<path d="M19.5339 14.2966C17.1215 14.2966 14.7082 13.2679 12.8713 11.2095L9.03288 6.90827C7.84972 5.58246 7.84972 3.43183 9.03288 2.10603C10.216 0.780223 12.1353 0.7793 13.3184 2.10603L17.1569 6.40728C18.4677 7.87609 20.6002 7.87609 21.9101 6.40728L25.7486 2.10603C26.9317 0.780223 28.851 0.780223 30.0341 2.10603C31.2173 3.43183 31.2173 5.58246 30.0341 6.90827L26.1957 11.2095C24.3588 13.2679 21.9463 14.2966 19.5331 14.2966H19.5339Z" fill="#8BC2DE"/>
<path d="M27.8916 44.8884C27.116 44.8884 26.3404 44.5572 25.7484 43.8938L21.9099 39.5926C20.5999 38.1247 18.4675 38.1238 17.1567 39.5926L13.319 43.8938C12.1359 45.2196 10.2167 45.2206 9.03349 43.8938C7.84951 42.568 7.84951 40.4174 9.03349 39.0916L12.872 34.7903C16.5458 30.6745 22.5225 30.6736 26.1963 34.7903L30.0347 39.0916C31.2179 40.4174 31.2179 42.568 30.0347 43.8938C29.4427 44.5572 28.6671 44.8884 27.8916 44.8884Z" fill="#8BC2DE"/>
<path d="M36.0369 35.7618C35.2613 35.7618 34.4857 35.4305 33.8938 34.7672L30.0553 30.4659C28.276 28.4721 27.2954 25.8205 27.2954 23.0001C27.2954 20.1796 28.2752 17.5289 30.0553 15.5342L33.8929 11.233C35.0761 9.90718 36.9953 9.90625 38.1785 11.233C39.3625 12.5588 39.3625 14.7094 38.1785 16.0352L34.34 20.3365C33.7052 21.0478 33.3553 21.9935 33.3553 23.0001C33.3553 24.0067 33.7052 24.9523 34.34 25.6628L38.1785 29.964C39.3616 31.2898 39.3616 33.4405 38.1785 34.7663C37.5865 35.4296 36.8109 35.7608 36.0353 35.7608L36.0369 35.7618Z" fill="#8BC2DE"/>
<path d="M3.03056 35.7605C2.25496 35.7605 1.47936 35.4293 0.887368 34.7659C-0.295789 33.4401 -0.295789 31.2895 0.887368 29.9637L4.72584 25.6624C6.03579 24.1936 6.03579 21.804 4.72584 20.3361L0.887368 16.0349C-0.295789 14.7091 -0.295789 12.5584 0.887368 11.2326C2.07053 9.90683 3.98976 9.90683 5.17292 11.2326L9.01138 15.5339C12.6844 19.6506 12.6844 26.3479 9.01138 30.4647L5.17292 34.7659C4.58175 35.4293 3.80533 35.7605 3.03056 35.7605Z" fill="#8BC2DE"/>
<path d="M49.5114 1.66072C50.4747 0.553572 51.6875 0 53.1498 0C54.6121 0 55.8249 0.553572 56.7882 1.66072C57.7515 2.76786 58.2332 4.12411 58.2332 5.72947C58.2332 7.33483 57.7515 8.69108 56.7882 9.79823C55.8249 10.9054 54.6121 11.4589 53.1498 11.4589C51.6875 11.4589 50.4747 10.9054 49.5114 9.79823C48.5481 8.69108 48.0664 7.33483 48.0664 5.72947C48.0664 4.12411 48.5481 2.76786 49.5114 1.66072ZM50.6822 8.61912C51.3392 9.39412 52.1618 9.78162 53.1498 9.78162C54.1378 9.78162 54.9603 9.39412 55.6174 8.61912C56.2744 7.84412 56.6029 6.8809 56.6029 5.72947C56.6029 4.57804 56.2744 3.61483 55.6174 2.83983C54.9603 2.06482 54.1378 1.67732 53.1498 1.67732C52.1618 1.67732 51.3392 2.06482 50.6822 2.83983C50.0252 3.61483 49.6966 4.57804 49.6966 5.72947C49.6966 6.8809 50.0252 7.84412 50.6822 8.61912Z" fill="black"/>
<path d="M59.3003 5.03275V3.48828H66.1325V5.03275H63.4944V11.2438H61.9235V5.03275H59.3003Z" fill="black"/>
<path d="M71.0528 3.60371C72.0408 3.60371 72.8708 3.98291 73.5426 4.7413C74.2145 5.49969 74.5504 6.43246 74.5504 7.53961C74.5504 8.64675 74.1997 9.57675 73.4982 10.3296C72.7967 11.0825 71.9321 11.4589 70.9046 11.4589C69.7585 11.4589 68.8643 11.0437 68.2221 10.2134C67.5799 9.383 67.2588 8.2205 67.2588 6.72586C67.2588 4.91014 67.5009 3.55112 67.985 2.6488C68.4691 1.74647 69.2497 1.23442 70.3266 1.11263L71.6011 0.963171C71.9766 0.918885 72.2582 0.838616 72.4459 0.722365C72.6336 0.606115 72.7571 0.409599 72.8164 0.132812H74.3874C74.3281 0.841385 74.1206 1.38388 73.7649 1.76031C73.4092 2.13674 72.8905 2.36924 72.2088 2.45781L70.5044 2.6571C69.9511 2.72353 69.5263 2.94496 69.2299 3.32139C68.9335 3.69782 68.7655 4.15728 68.726 4.69978C69.2299 3.96907 70.0055 3.60371 71.0528 3.60371ZM69.4226 9.18372C69.8178 9.6155 70.3118 9.8314 70.9046 9.8314C71.4974 9.8314 71.9914 9.6155 72.3866 9.18372C72.7818 8.75193 72.9794 8.20389 72.9794 7.53961C72.9794 6.87532 72.7818 6.32452 72.3866 5.88719C71.9914 5.44987 71.4974 5.23121 70.9046 5.23121C70.3118 5.23121 69.8178 5.44987 69.4226 5.88719C69.0273 6.32452 68.8297 6.87532 68.8297 7.53961C68.8297 8.20389 69.0273 8.75193 69.4226 9.18372Z" fill="black"/>
<path d="M79.2331 3.27148C80.2606 3.27148 81.0856 3.54274 81.7081 4.08524C82.3305 4.62774 82.6417 5.38613 82.6417 6.36042V11.2429H81.0708V10.5288C80.5471 11.1488 79.7715 11.4588 78.744 11.4588C77.8943 11.4588 77.22 11.2346 76.721 10.7862C76.2221 10.3378 75.9726 9.69292 75.9726 8.85149C75.9726 8.24256 76.1282 7.74711 76.4394 7.36515C76.7507 6.98319 77.1311 6.72024 77.5806 6.57631C78.0302 6.43238 78.5464 6.36042 79.1293 6.36042H81.0708C81.0708 5.8622 80.9028 5.49408 80.5669 5.25604C80.231 5.01801 79.7913 4.89899 79.2479 4.89899C78.3093 4.89899 77.7214 5.23113 77.4843 5.89542H75.8096C76.0072 5.05399 76.4197 4.40631 77.0471 3.95238C77.6745 3.49845 78.4031 3.27148 79.2331 3.27148ZM81.0708 8.1872V7.77203H79.1145C78.0672 7.77203 77.5435 8.13185 77.5435 8.85149C77.5435 9.20578 77.672 9.4798 77.9289 9.67355C78.1858 9.8673 78.5414 9.96417 78.9959 9.96417C79.6085 9.96417 80.1075 9.8064 80.4928 9.49087C80.8781 9.17533 81.0708 8.74078 81.0708 8.1872Z" fill="black"/>
<path d="M91.3116 5.89542H89.6666C89.301 5.23113 88.7378 4.89899 87.977 4.89899C87.3645 4.89899 86.863 5.13149 86.4728 5.59649C86.0825 6.06149 85.8874 6.64827 85.8874 7.35685C85.8874 8.06542 86.0825 8.65497 86.4728 9.12551C86.863 9.59605 87.3645 9.83131 87.977 9.83131C88.7378 9.83131 89.301 9.49917 89.6666 8.83489H91.3116C91.0547 9.6431 90.6274 10.2825 90.0296 10.753C89.4319 11.2235 88.7477 11.4588 87.977 11.4588C86.9396 11.4588 86.0701 11.0685 85.3687 10.288C84.6672 9.50748 84.3164 8.53042 84.3164 7.35685C84.3164 6.18327 84.6672 5.22283 85.3687 4.44229C86.0701 3.66175 86.9396 3.27148 87.977 3.27148C88.7477 3.27148 89.4319 3.50675 90.0296 3.97729C90.6274 4.44782 91.0547 5.0872 91.3116 5.89542Z" fill="black"/>
<path d="M94.6462 5.87971H96.6173C97.4867 5.87971 98.1536 6.13712 98.618 6.65195C99.0824 7.16677 99.3146 7.80615 99.3146 8.57008C99.3146 9.334 99.0848 9.98445 98.6254 10.4882C98.166 10.992 97.4966 11.2438 96.6173 11.2438H93.0752V3.48828H94.6462V5.87971ZM94.6462 9.69936H96.5728C96.9384 9.69936 97.2249 9.60249 97.4324 9.40874C97.6399 9.21499 97.7436 8.93543 97.7436 8.57008C97.7436 8.20472 97.6374 7.92239 97.425 7.72311C97.2125 7.52382 96.9285 7.42418 96.5728 7.42418H94.6462V9.69936ZM100.441 3.48828H102.012V11.2438H100.441V3.48828Z" fill="black"/>
<path d="M109.526 3.48828H111.097V11.2438H109.526V8.10507H105.836V11.2438H104.265V3.48828H105.836V6.56061H109.526V3.48828Z" fill="black"/>
<path d="M114.92 5.87971H116.891C117.761 5.87971 118.428 6.13712 118.892 6.65195C119.356 7.16677 119.588 7.80615 119.588 8.57008C119.588 9.334 119.359 9.98445 118.899 10.4882C118.44 10.992 117.771 11.2438 116.891 11.2438H113.349V3.48828H114.92V5.87971ZM114.92 9.69936H116.847C117.212 9.69936 117.499 9.60249 117.706 9.40874C117.914 9.21499 118.018 8.93543 118.018 8.57008C118.018 8.20472 117.911 7.92239 117.699 7.72311C117.486 7.52382 117.202 7.42418 116.847 7.42418H114.92V9.69936ZM120.715 3.48828H122.286V11.2438H120.715V3.48828Z" fill="black"/>
<path d="M132.511 13.3363H131V11.2438H129.799V8.10507H126.109V11.2438H124.538V3.48828H126.109V6.56061H129.799V3.48828H131.37V9.69936H132.511V13.3363Z" fill="black"/>
<path d="M56.3808 29.0199H54.8691V26.9274H48.5557V19.1719H50.1266V25.383H53.6687V19.1719H55.2396V25.383H56.3808V29.0199Z" fill="black"/>
<path d="M59.6413 26.9274H58.0703V19.1719H59.6413V24.4363L63.3315 19.1719H64.9025V26.9274H63.3315V21.663L59.6413 26.9274Z" fill="black"/>
<path d="M71.0679 15.8184H72.6389V19.173H73.2762C74.3432 19.173 75.2251 19.5384 75.9216 20.2691C76.6182 20.9998 76.9664 21.9243 76.9664 23.0425C76.9664 24.2271 76.6355 25.171 75.9735 25.874C75.3115 26.577 74.4173 26.9286 73.291 26.9286H72.6389V30.3164H71.0679V26.9286H70.4159C69.2697 26.9286 68.3682 26.577 67.7111 25.874C67.0541 25.171 66.7256 24.2271 66.7256 23.0425C66.7256 21.9243 67.0739 20.9998 67.7704 20.2691C68.467 19.5384 69.3488 19.173 70.4159 19.173H71.0679V15.8184ZM71.0679 20.7175H70.4307C69.7687 20.7175 69.2475 20.9306 68.8671 21.3568C68.4867 21.7831 68.2965 22.345 68.2965 23.0425C68.2965 23.74 68.4769 24.3046 68.8375 24.7364C69.1981 25.1682 69.7242 25.3841 70.4159 25.3841H71.0679V20.7175ZM73.2762 20.7175H72.6389V25.3841H73.2762C73.9678 25.3841 74.4939 25.1682 74.8545 24.7364C75.2152 24.3046 75.3955 23.74 75.3955 23.0425C75.3955 22.345 75.2078 21.7831 74.8323 21.3568C74.4569 20.9306 73.9382 20.7175 73.2762 20.7175Z" fill="black"/>
<path d="M80.3747 30.3163H78.8037V19.1729H80.3747V19.887C80.8983 19.267 81.6245 18.957 82.5533 18.957C83.6302 18.957 84.4873 19.3584 85.1246 20.161C85.7619 20.9637 86.0805 21.9242 86.0805 23.0424C86.0805 24.1606 85.7619 25.1377 85.1246 25.9403C84.4873 26.743 83.6302 27.1444 82.5533 27.1444C81.6245 27.1444 80.8983 26.8344 80.3747 26.2144V30.3163ZM80.9453 21.2239C80.5253 21.6502 80.3154 22.2563 80.3154 23.0424C80.3154 23.8285 80.5253 24.4374 80.9453 24.8692C81.3652 25.301 81.8666 25.5169 82.4495 25.5169C83.0325 25.5169 83.5462 25.2761 83.9316 24.7945C84.3169 24.3128 84.5095 23.7288 84.5095 23.0424C84.5095 22.356 84.3169 21.7886 83.9316 21.3069C83.5462 20.8253 83.0522 20.5845 82.4495 20.5845C81.8468 20.5845 81.3652 20.7977 80.9453 21.2239Z" fill="black"/>
<path d="M88.6444 19.1719H94.3798V26.9274H92.8089V20.7163H90.2153V22.4269C90.2153 23.0137 90.1882 23.5313 90.1338 23.9797C90.0795 24.428 89.9708 24.8958 89.8078 25.383C89.6447 25.8701 89.3804 26.2493 89.0149 26.5205C88.6493 26.7918 88.1899 26.9274 87.6366 26.9274H87.0586V25.2833H87.4587C87.7354 25.2833 87.9602 25.1975 88.1331 25.0259C88.306 24.8543 88.4245 24.6024 88.4888 24.2703C88.553 23.9381 88.595 23.6447 88.6147 23.3901C88.6345 23.1355 88.6444 22.8033 88.6444 22.3937V19.1719Z" fill="black"/>
<path d="M98.2028 21.5633H100.174C101.043 21.5633 101.71 21.8207 102.175 22.3355C102.639 22.8504 102.871 23.4897 102.871 24.2537C102.871 25.0176 102.641 25.668 102.182 26.1718C101.723 26.6755 101.053 26.9274 100.174 26.9274H96.6318V19.1719H98.2028V21.5633ZM98.2028 25.383H100.129C100.495 25.383 100.782 25.2861 100.989 25.0923C101.196 24.8986 101.3 24.619 101.3 24.2537C101.3 23.8883 101.194 23.606 100.982 23.4067C100.769 23.2074 100.485 23.1078 100.129 23.1078H98.2028V25.383ZM103.998 19.1719H105.568V26.9274H103.998V19.1719Z" fill="black"/>
<path d="M114.609 29.0199H113.083V26.9274H112.46L109.392 23.9215V26.9274H107.821V19.1719H109.392V22.3605L112.46 19.1719H114.609L110.83 23.058L113.097 25.383H114.609V29.0199Z" fill="black"/>
<path d="M48.5557 34.8574H50.1266V38.046L53.1944 34.8574H55.3434L51.5642 38.7435L55.3434 42.613H53.1944L50.1266 39.6071V42.613H48.5557V34.8574Z" fill="black"/>
<path d="M59.4782 34.6406C60.5057 34.6406 61.3307 34.9119 61.9532 35.4544C62.5756 35.9969 62.8869 36.7553 62.8869 37.7296V42.6121H61.3159V41.898C60.7923 42.518 60.0167 42.828 58.9891 42.828C58.1394 42.828 57.4651 42.6038 56.9661 42.1554C56.4672 41.707 56.2177 41.0621 56.2177 40.2206C56.2177 39.6117 56.3733 39.1163 56.6845 38.7343C56.9958 38.3523 57.3762 38.0894 57.8257 37.9455C58.2753 37.8015 58.7915 37.7296 59.3744 37.7296H61.3159C61.3159 37.2313 61.1479 36.8632 60.812 36.6252C60.4761 36.3871 60.0364 36.2681 59.493 36.2681C58.5544 36.2681 57.9665 36.6003 57.7294 37.2646H56.0547C56.2523 36.4231 56.6648 35.7754 57.2922 35.3215C57.9196 34.8676 58.6482 34.6406 59.4782 34.6406ZM61.3159 39.5563V39.1412H59.3596C58.3123 39.1412 57.7887 39.501 57.7887 40.2206C57.7887 40.5749 57.9171 40.8489 58.174 41.0427C58.4309 41.2364 58.7866 41.3333 59.2411 41.3333C59.8536 41.3333 60.3526 41.1755 60.7379 40.86C61.1232 40.5445 61.3159 40.1099 61.3159 39.5563Z" fill="black"/>
<path d="M66.5622 45.9999H64.9912V34.8565H66.5622V35.5706C67.0858 34.9506 67.812 34.6406 68.7408 34.6406C69.8177 34.6406 70.6748 35.042 71.3121 35.8446C71.9494 36.6473 72.268 37.6078 72.268 38.726C72.268 39.8442 71.9494 40.8213 71.3121 41.6239C70.6748 42.4266 69.8177 42.828 68.7408 42.828C67.812 42.828 67.0858 42.518 66.5622 41.898V45.9999ZM67.1328 36.9075C66.7128 37.3338 66.5029 37.9399 66.5029 38.726C66.5029 39.5121 66.7128 40.121 67.1328 40.5528C67.5527 40.9846 68.0541 41.2005 68.637 41.2005C69.22 41.2005 69.7337 40.9597 70.1191 40.478C70.5044 39.9964 70.697 39.4124 70.697 38.726C70.697 38.0396 70.5044 37.4721 70.1191 36.9905C69.7337 36.5089 69.2397 36.2681 68.637 36.2681C68.0343 36.2681 67.5527 36.4813 67.1328 36.9075Z" fill="black"/>
<path d="M73.0981 36.4019V34.8574H79.9303V36.4019H77.2923V42.613H75.7214V36.4019H73.0981Z" fill="black"/>
<path d="M84.4943 34.6406C85.5218 34.6406 86.3468 34.9119 86.9693 35.4544C87.5918 35.9969 87.903 36.7553 87.903 37.7296V42.6121H86.332V41.898C85.8084 42.518 85.0328 42.828 84.0052 42.828C83.1555 42.828 82.4812 42.6038 81.9822 42.1554C81.4833 41.707 81.2338 41.0621 81.2338 40.2206C81.2338 39.6117 81.3894 39.1163 81.7007 38.7343C82.0119 38.3523 82.3923 38.0894 82.8418 37.9455C83.2914 37.8015 83.8076 37.7296 84.3906 37.7296H86.332C86.332 37.2313 86.1641 36.8632 85.8281 36.6252C85.4922 36.3871 85.0525 36.2681 84.5091 36.2681C83.5705 36.2681 82.9826 36.6003 82.7455 37.2646H81.0708C81.2684 36.4231 81.6809 35.7754 82.3083 35.3215C82.9357 34.8676 83.6644 34.6406 84.4943 34.6406ZM86.332 39.5563V39.1412H84.3757C83.3284 39.1412 82.8048 39.501 82.8048 40.2206C82.8048 40.5749 82.9332 40.8489 83.1901 41.0427C83.447 41.2364 83.8027 41.3333 84.2572 41.3333C84.8697 41.3333 85.3687 41.1755 85.754 40.86C86.1394 40.5445 86.332 40.1099 86.332 39.5563Z" fill="black"/>
<path d="M96.5728 37.2646H94.9278C94.5622 36.6003 93.999 36.2681 93.2383 36.2681C92.6257 36.2681 92.1243 36.5006 91.734 36.9656C91.3437 37.4306 91.1486 38.0174 91.1486 38.726C91.1486 39.4346 91.3437 40.0241 91.734 40.4947C92.1243 40.9652 92.6257 41.2005 93.2383 41.2005C93.999 41.2005 94.5622 40.8683 94.9278 40.204H96.5728C96.316 41.0122 95.8886 41.6516 95.2909 42.1222C94.6931 42.5927 94.0089 42.828 93.2383 42.828C92.2008 42.828 91.3314 42.4377 90.6299 41.6572C89.9284 40.8766 89.5776 39.8996 89.5776 38.726C89.5776 37.5524 89.9284 36.592 90.6299 35.8114C91.3314 35.0309 92.2008 34.6406 93.2383 34.6406C94.0089 34.6406 94.6931 34.8759 95.2909 35.3464C95.8886 35.817 96.316 36.4563 96.5728 37.2646Z" fill="black"/>
<path d="M99.9074 37.2489H101.878C102.748 37.2489 103.415 37.5063 103.879 38.0211C104.344 38.5359 104.576 39.1753 104.576 39.9392C104.576 40.7031 104.346 41.3536 103.887 41.8573C103.427 42.3611 102.758 42.613 101.878 42.613H98.3364V34.8574H99.9074V37.2489ZM99.9074 41.0685H101.834C102.2 41.0685 102.486 40.9716 102.694 40.7779C102.901 40.5841 103.005 40.3046 103.005 39.9392C103.005 39.5739 102.899 39.2915 102.686 39.0922C102.474 38.893 102.19 38.7933 101.834 38.7933H99.9074V41.0685ZM105.702 34.8574H107.273V42.613H105.702V34.8574Z" fill="black"/>
</svg>
