<svg width="304" height="106" viewBox="0 0 304 106" fill="none" xmlns="http://www.w3.org/2000/svg">
  <!-- Логотип (синие элементы) -->
  <path d="M44.8139 64.6577C50.6756 64.6577 55.4275 59.3329 55.4275 52.7644C55.4275 46.1959 50.6756 40.8711 44.8139 40.8711C38.9521 40.8711 34.2002 46.1959 34.2002 52.7644C34.2002 59.3329 38.9521 64.6577 44.8139 64.6577Z" fill="#8BC2DE"/>
  <path d="M44.8136 32.7977C39.2792 32.7977 33.7429 30.4377 29.5287 25.7155L20.7228 15.8478C18.0084 12.8062 18.0084 7.8724 20.7228 4.83081C23.4371 1.78923 27.8401 1.78711 30.5544 4.83081L39.3604 14.6985C42.3675 18.0682 47.2597 18.0682 50.2649 14.6985L59.0709 4.83081C61.7853 1.78923 66.1883 1.78923 68.9026 4.83081C71.6169 7.8724 71.6169 12.8062 68.9026 15.8478L60.0966 25.7155C55.8825 30.4377 50.3481 32.7977 44.8117 32.7977H44.8136Z" fill="#8BC2DE"/>
  <path d="M63.9882 102.983C62.2089 102.983 60.4295 102.223 59.0714 100.702L50.2654 90.8339C47.2602 87.4663 42.368 87.4642 39.3609 90.8339L30.5568 100.702C27.8425 103.743 23.4395 103.745 20.7252 100.702C18.0089 97.66 18.0089 92.7261 20.7252 89.6845L29.5311 79.8169C37.9594 70.3746 51.6708 70.3725 60.099 79.8169L68.905 89.6845C71.6193 92.7261 71.6193 97.66 68.905 100.702C67.5469 102.223 65.7675 102.983 63.9882 102.983Z" fill="#8BC2DE"/>
  <path d="M82.6749 82.0408C80.8956 82.0408 79.1163 81.281 77.7581 79.7591L68.9522 69.8914C64.8703 65.3174 62.6206 59.2342 62.6206 52.7637C62.6206 46.2932 64.8684 40.2121 68.9522 35.636L77.7563 25.7683C80.4706 22.7267 84.8736 22.7246 87.5879 25.7683C90.3041 28.8099 90.3041 33.7437 87.5879 36.7853L78.7819 46.653C77.3256 48.2849 76.5228 50.4545 76.5228 52.7637C76.5228 55.0729 77.3256 57.2425 78.7819 58.8723L87.5879 68.74C90.3022 71.7815 90.3022 76.7154 87.5879 79.757C86.2298 81.2788 84.4505 82.0387 82.6711 82.0387L82.6749 82.0408Z" fill="#8BC2DE"/>
  <path d="M6.95252 82.0438C5.17319 82.0438 3.39386 81.2839 2.03575 79.7621C-0.678583 76.7205 -0.678583 71.7866 2.03575 68.745L10.8417 58.8773C13.847 55.5077 13.847 50.0256 10.8417 46.6581L2.03575 36.7904C-0.678583 33.7488 -0.678583 28.815 2.03575 25.7734C4.75008 22.7318 9.15307 22.7318 11.8674 25.7734L20.6734 35.6411C29.0997 45.0854 29.0997 60.45 20.6734 69.8943L11.8674 79.7621C10.5112 81.2839 8.72997 82.0438 6.95252 82.0438Z" fill="#8BC2DE"/>
  
  <!-- Русский текст -->
  <text x="152" y="20" text-anchor="middle" font-family="Arial, sans-serif" font-size="14" font-weight="bold" fill="white">ЦИФРОВАЯ КАРТА СЕМЬИ</text>
  <text x="152" y="85" text-anchor="middle" font-family="Arial, sans-serif" font-size="14" font-weight="bold" fill="white">ЦИФРОВАЯ КАРТА СЕМЬИ</text>
</svg>
