<svg width="90" height="101" viewBox="0 0 90 101" fill="none" xmlns="http://www.w3.org/2000/svg">
<path d="M44.8139 62.3452C50.6756 62.3452 55.4275 57.0204 55.4275 50.4519C55.4275 43.8834 50.6756 38.5586 44.8139 38.5586C38.9521 38.5586 34.2002 43.8834 34.2002 50.4519C34.2002 57.0204 38.9521 62.3452 44.8139 62.3452Z" fill="#8BC2DE"/>
<path d="M44.8136 30.4852C39.2792 30.4852 33.7429 28.1252 29.5287 23.403L20.7228 13.5353C18.0084 10.4937 18.0084 5.5599 20.7228 2.51831C23.4371 -0.523274 27.8401 -0.525391 30.5544 2.51831L39.3604 12.386C42.3675 15.7557 47.2597 15.7557 50.2649 12.386L59.0709 2.51831C61.7853 -0.523274 66.1883 -0.523274 68.9026 2.51831C71.6169 5.5599 71.6169 10.4937 68.9026 13.5353L60.0966 23.403C55.8825 28.1252 50.3481 30.4852 44.8117 30.4852H44.8136Z" fill="#8BC2DE"/>
<path d="M63.9882 100.671C62.2089 100.671 60.4295 99.9109 59.0714 98.3891L50.2654 88.5214C47.2602 85.1538 42.368 85.1517 39.3609 88.5214L30.5568 98.3891C27.8425 101.431 23.4395 101.433 20.7252 98.3891C18.0089 95.3475 18.0089 90.4136 20.7252 87.372L29.5311 77.5044C37.9594 68.0621 51.6708 68.06 60.099 77.5044L68.905 87.372C71.6193 90.4136 71.6193 95.3475 68.905 98.3891C67.5469 99.9109 65.7675 100.671 63.9882 100.671Z" fill="#8BC2DE"/>
<path d="M82.6749 79.7283C80.8956 79.7283 79.1163 78.9685 77.7581 77.4466L68.9522 67.5789C64.8703 63.0049 62.6206 56.9217 62.6206 50.4512C62.6206 43.9807 64.8684 37.8996 68.9522 33.3235L77.7563 23.4558C80.4706 20.4142 84.8736 20.4121 87.5879 23.4558C90.3041 26.4974 90.3041 31.4312 87.5879 34.4728L78.7819 44.3405C77.3256 45.9724 76.5228 48.142 76.5228 50.4512C76.5228 52.7604 77.3256 54.93 78.7819 56.5598L87.5879 66.4275C90.3022 69.469 90.3022 74.4029 87.5879 77.4445C86.2298 78.9663 84.4505 79.7262 82.6711 79.7262L82.6749 79.7283Z" fill="#8BC2DE"/>
<path d="M6.95252 79.7313C5.17319 79.7313 3.39386 78.9714 2.03575 77.4496C-0.678583 74.408 -0.678583 69.4741 2.03575 66.4325L10.8417 56.5648C13.847 53.1952 13.847 47.7131 10.8417 44.3456L2.03575 34.4779C-0.678583 31.4363 -0.678583 26.5025 2.03575 23.4609C4.75008 20.4193 9.15307 20.4193 11.8674 23.4609L20.6734 33.3286C29.0997 42.7729 29.0997 58.1375 20.6734 67.5818L11.8674 77.4496C10.5112 78.9714 8.72997 79.7313 6.95252 79.7313Z" fill="#8BC2DE"/>
</svg>
