<svg width="304" height="106" viewBox="0 0 304 106" fill="none" xmlns="http://www.w3.org/2000/svg">
<path d="M44.8139 64.6577C50.6756 64.6577 55.4275 59.3329 55.4275 52.7644C55.4275 46.1959 50.6756 40.8711 44.8139 40.8711C38.9521 40.8711 34.2002 46.1959 34.2002 52.7644C34.2002 59.3329 38.9521 64.6577 44.8139 64.6577Z" fill="#8BC2DE"/>
<path d="M44.8136 32.7977C39.2792 32.7977 33.7429 30.4377 29.5287 25.7155L20.7228 15.8478C18.0084 12.8062 18.0084 7.8724 20.7228 4.83081C23.4371 1.78923 27.8401 1.78711 30.5544 4.83081L39.3604 14.6985C42.3675 18.0682 47.2597 18.0682 50.2649 14.6985L59.0709 4.83081C61.7853 1.78923 66.1883 1.78923 68.9026 4.83081C71.6169 7.8724 71.6169 12.8062 68.9026 15.8478L60.0966 25.7155C55.8825 30.4377 50.3481 32.7977 44.8117 32.7977H44.8136Z" fill="#8BC2DE"/>
<path d="M63.9882 102.983C62.2089 102.983 60.4295 102.223 59.0714 100.702L50.2654 90.8339C47.2602 87.4663 42.368 87.4642 39.3609 90.8339L30.5568 100.702C27.8425 103.743 23.4395 103.745 20.7252 100.702C18.0089 97.66 18.0089 92.7261 20.7252 89.6845L29.5311 79.8169C37.9594 70.3746 51.6708 70.3725 60.099 79.8169L68.905 89.6845C71.6193 92.7261 71.6193 97.66 68.905 100.702C67.5469 102.223 65.7675 102.983 63.9882 102.983Z" fill="#8BC2DE"/>
<path d="M82.6749 82.0408C80.8956 82.0408 79.1163 81.281 77.7581 79.7591L68.9522 69.8914C64.8703 65.3174 62.6206 59.2342 62.6206 52.7637C62.6206 46.2932 64.8684 40.2121 68.9522 35.636L77.7563 25.7683C80.4706 22.7267 84.8736 22.7246 87.5879 25.7683C90.3041 28.8099 90.3041 33.7437 87.5879 36.7853L78.7819 46.653C77.3256 48.2849 76.5228 50.4545 76.5228 52.7637C76.5228 55.0729 77.3256 57.2425 78.7819 58.8723L87.5879 68.74C90.3022 71.7815 90.3022 76.7154 87.5879 79.757C86.2298 81.2788 84.4505 82.0387 82.6711 82.0387L82.6749 82.0408Z" fill="#8BC2DE"/>
<path d="M6.95252 82.0438C5.17319 82.0438 3.39386 81.2839 2.03575 79.7621C-0.678583 76.7205 -0.678583 71.7866 2.03575 68.745L10.8417 58.8773C13.847 55.5077 13.847 50.0256 10.8417 46.6581L2.03575 36.7904C-0.678583 33.7488 -0.678583 28.815 2.03575 25.7734C4.75008 22.7318 9.15307 22.7318 11.8674 25.7734L20.6734 35.6411C29.0997 45.0854 29.0997 60.45 20.6734 69.8943L11.8674 79.7621C10.5112 81.2839 8.72997 82.0438 6.95252 82.0438Z" fill="#8BC2DE"/>
<path d="M113.586 3.80992C115.796 1.26997 118.578 0 121.933 0C125.288 0 128.07 1.26997 130.28 3.80992C132.49 6.34986 133.595 9.4613 133.595 13.1442C133.595 16.8271 132.49 19.9386 130.28 22.4785C128.07 25.0185 125.288 26.2884 121.933 26.2884C118.578 26.2884 115.796 25.0185 113.586 22.4785C111.376 19.9386 110.271 16.8271 110.271 13.1442C110.271 9.4613 111.376 6.34986 113.586 3.80992ZM116.272 19.7735C117.779 21.5514 119.666 22.4404 121.933 22.4404C124.2 22.4404 126.087 21.5514 127.594 19.7735C129.101 17.9955 129.855 15.7858 129.855 13.1442C129.855 10.5027 129.101 8.29292 127.594 6.51496C126.087 4.737 124.2 3.84802 121.933 3.84802C119.666 3.84802 117.779 4.737 116.272 6.51496C114.765 8.29292 114.011 10.5027 114.011 13.1442C114.011 15.7858 114.765 17.9955 116.272 19.7735Z" fill="white"/>
<path d="M136.043 11.5452V8.00195H151.717V11.5452H145.665V25.7943H142.061V11.5452H136.043Z" fill="white"/>
<path d="M163.005 8.26742C165.272 8.26742 167.176 9.13735 168.717 10.8772C170.259 12.6171 171.029 14.757 171.029 17.2969C171.029 19.8369 170.225 21.9704 168.615 23.6976C167.006 25.4247 165.023 26.2883 162.665 26.2883C160.036 26.2883 157.985 25.3358 156.511 23.4309C155.038 21.5259 154.301 18.859 154.301 15.4301C154.301 11.2646 154.857 8.14677 155.967 6.07671C157.078 4.00666 158.869 2.83193 161.339 2.55254L164.263 2.20965C165.125 2.10805 165.771 1.9239 166.201 1.65721C166.632 1.39051 166.915 0.939674 167.051 0.304688H170.655C170.519 1.93025 170.043 3.17482 169.227 4.0384C168.411 4.90199 167.221 5.43537 165.657 5.63857L161.747 6.09576C160.478 6.24816 159.503 6.75615 158.823 7.61973C158.143 8.48331 157.758 9.53739 157.667 10.782C158.823 9.1056 160.603 8.26742 163.005 8.26742ZM159.265 21.0687C160.172 22.0593 161.305 22.5546 162.665 22.5546C164.025 22.5546 165.159 22.0593 166.065 21.0687C166.972 20.0782 167.425 18.8209 167.425 17.2969C167.425 15.773 166.972 14.5093 166.065 13.5061C165.159 12.5028 164.025 12.0011 162.665 12.0011C161.305 12.0011 160.172 12.5028 159.265 13.5061C158.359 14.5093 157.905 15.773 157.905 17.2969C157.905 18.8209 158.359 20.0782 159.265 21.0687Z" fill="white"/>
<path d="M181.772 7.50586C184.129 7.50586 186.022 8.12815 187.45 9.37272C188.878 10.6173 189.592 12.3572 189.592 14.5923V25.7935H185.988V24.1552C184.787 25.5776 183.007 26.2888 180.65 26.2888C178.701 26.2888 177.154 25.7744 176.009 24.7457C174.864 23.7171 174.292 22.2375 174.292 20.3072C174.292 18.9102 174.649 17.7736 175.363 16.8973C176.077 16.021 176.95 15.4178 177.981 15.0876C179.012 14.7574 180.197 14.5923 181.534 14.5923H185.988C185.988 13.4493 185.603 12.6048 184.832 12.0587C184.061 11.5126 183.053 11.2396 181.806 11.2396C179.653 11.2396 178.304 12.0016 177.76 13.5255H173.918C174.371 11.5952 175.318 10.1093 176.757 9.06793C178.196 8.02655 179.868 7.50586 181.772 7.50586ZM185.988 18.7832V17.8307H181.5C179.097 17.8307 177.896 18.6562 177.896 20.3072C177.896 21.12 178.191 21.7486 178.78 22.1931C179.369 22.6376 180.185 22.8598 181.228 22.8598C182.633 22.8598 183.778 22.4979 184.662 21.774C185.546 21.0501 185.988 20.0532 185.988 18.7832Z" fill="white"/>
<path d="M209.482 13.5255H205.708C204.869 12.0016 203.577 11.2396 201.832 11.2396C200.426 11.2396 199.276 11.773 198.381 12.8397C197.485 13.9065 197.038 15.2527 197.038 16.8783C197.038 18.5038 197.485 19.8563 198.381 20.9358C199.276 22.0153 200.426 22.555 201.832 22.555C203.577 22.555 204.869 21.7931 205.708 20.2691H209.482C208.892 22.1233 207.912 23.5901 206.541 24.6695C205.169 25.749 203.6 26.2888 201.832 26.2888C199.452 26.2888 197.457 25.3934 195.848 23.6028C194.238 21.8121 193.434 19.5706 193.434 16.8783C193.434 14.1859 194.238 11.9825 195.848 10.1919C197.457 8.40119 199.452 7.50586 201.832 7.50586C203.6 7.50586 205.169 8.0456 206.541 9.12507C207.912 10.2046 208.892 11.6714 209.482 13.5255Z" fill="white"/>
<path d="M217.132 13.4882H221.654C223.648 13.4882 225.178 14.0788 226.244 15.2599C227.309 16.4409 227.842 17.9077 227.842 19.6603C227.842 21.4129 227.315 22.9051 226.261 24.0608C225.207 25.2164 223.671 25.7943 221.654 25.7943H213.528V8.00195H217.132V13.4882ZM217.132 22.2511H221.552C222.391 22.2511 223.048 22.0288 223.524 21.5843C224 21.1398 224.238 20.4985 224.238 19.6603C224.238 18.8221 223.994 18.1744 223.507 17.7172C223.02 17.2601 222.368 17.0315 221.552 17.0315H217.132V22.2511ZM230.426 8.00195H234.03V25.7943H230.426V8.00195Z" fill="white"/>
<path d="M251.268 8.00195H254.872V25.7943H251.268V18.5935H242.802V25.7943H239.198V8.00195H242.802V15.0503H251.268V8.00195Z" fill="white"/>
<path d="M263.643 13.4882H268.165C270.16 13.4882 271.69 14.0788 272.755 15.2599C273.82 16.4409 274.353 17.9077 274.353 19.6603C274.353 21.4129 273.826 22.9051 272.772 24.0608C271.718 25.2164 270.182 25.7943 268.165 25.7943H260.039V8.00195H263.643V13.4882ZM263.643 22.2511H268.063C268.902 22.2511 269.559 22.0288 270.035 21.5843C270.511 21.1398 270.749 20.4985 270.749 19.6603C270.749 18.8221 270.505 18.1744 270.018 17.7172C269.531 17.2601 268.879 17.0315 268.063 17.0315H263.643V22.2511ZM276.937 8.00195H280.541V25.7943H276.937V8.00195Z" fill="white"/>
<path d="M304 30.5948H300.532V25.7943H297.778V18.5935H289.312V25.7943H285.708V8.00195H289.312V15.0503H297.778V8.00195H301.382V22.251H304V30.5948Z" fill="white"/>
<path d="M129.346 66.5772H125.878V61.7767H111.394V43.9844H114.998V58.2335H123.124V43.9844H126.728V58.2335H129.346V66.5772Z" fill="white"/>
<path d="M136.826 61.7767H133.222V43.9844H136.826V56.0618L145.292 43.9844H148.896V61.7767H145.292V49.6993L136.826 61.7767Z" fill="white"/>
<path d="M163.04 36.2891H166.644V43.9851H168.106C170.554 43.9851 172.577 44.8233 174.175 46.4997C175.773 48.176 176.572 50.2969 176.572 52.8622C176.572 55.58 175.812 57.7453 174.294 59.3581C172.775 60.971 170.724 61.7774 168.14 61.7774H166.644V69.5497H163.04V61.7774H161.544C158.914 61.7774 156.846 60.971 155.339 59.3581C153.831 57.7453 153.078 55.58 153.078 52.8622C153.078 50.2969 153.877 48.176 155.475 46.4997C157.073 44.8233 159.096 43.9851 161.544 43.9851H163.04V36.2891ZM163.04 47.5283H161.578C160.059 47.5283 158.863 48.0173 157.991 48.9951C157.118 49.973 156.682 51.262 156.682 52.8622C156.682 54.4624 157.095 55.7577 157.923 56.7483C158.75 57.7389 159.957 58.2342 161.544 58.2342H163.04V47.5283ZM168.106 47.5283H166.644V58.2342H168.106C169.692 58.2342 170.899 57.7389 171.727 56.7483C172.554 55.7577 172.968 54.4624 172.968 52.8622C172.968 51.262 172.537 49.973 171.676 48.9951C170.814 48.0173 169.624 47.5283 168.106 47.5283Z" fill="white"/>
<path d="M184.391 69.5501H180.787V43.9855H184.391V45.6238C185.592 44.2014 187.258 43.4902 189.389 43.4902C191.86 43.4902 193.826 44.411 195.288 46.2524C196.75 48.0939 197.481 50.2973 197.481 52.8626C197.481 55.428 196.75 57.6695 195.288 59.5109C193.826 61.3524 191.86 62.2731 189.389 62.2731C187.258 62.2731 185.592 61.562 184.391 60.1396V69.5501ZM185.7 48.6908C184.737 49.6687 184.255 51.0593 184.255 52.8626C184.255 54.666 184.737 56.063 185.7 57.0535C186.663 58.0441 187.814 58.5394 189.151 58.5394C190.488 58.5394 191.667 57.987 192.551 56.8821C193.435 55.7772 193.877 54.4374 193.877 52.8626C193.877 51.2879 193.435 49.9862 192.551 48.8813C191.667 47.7764 190.534 47.224 189.151 47.224C187.768 47.224 186.663 47.7129 185.7 48.6908Z" fill="white"/>
<path d="M203.363 43.9844H216.521V61.7767H212.917V47.5276H206.967V51.4518C206.967 52.798 206.904 53.9854 206.78 55.0141C206.655 56.0428 206.406 57.1159 206.032 58.2335C205.658 59.3511 205.051 60.221 204.213 60.8433C203.374 61.4655 202.32 61.7767 201.051 61.7767H199.725V58.0049H200.643C201.277 58.0049 201.793 57.808 202.19 57.4143C202.586 57.0206 202.858 56.4428 203.006 55.6808C203.153 54.9188 203.249 54.2458 203.295 53.6616C203.34 53.0774 203.363 52.3154 203.363 51.3756V43.9844Z" fill="white"/>
<path d="M225.291 49.4707H229.813C231.808 49.4707 233.338 50.0612 234.403 51.2423C235.468 52.4233 236.001 53.8902 236.001 55.6427C236.001 57.3953 235.474 58.8875 234.42 60.0432C233.366 61.1989 231.83 61.7767 229.813 61.7767H221.687V43.9844H225.291V49.4707ZM225.291 58.2335H229.711C230.55 58.2335 231.207 58.0112 231.683 57.5667C232.159 57.1222 232.397 56.4809 232.397 55.6427C232.397 54.8045 232.153 54.1569 231.666 53.6997C231.179 53.2425 230.527 53.0139 229.711 53.0139H225.291V58.2335ZM238.585 43.9844H242.189V61.7767H238.585V43.9844Z" fill="white"/>
<path d="M262.929 66.5772H259.427V61.7767H257.999L250.961 54.8807V61.7767H247.357V43.9844H250.961V51.2994L257.999 43.9844H262.929L254.259 52.8996L259.461 58.2335H262.929V66.5772Z" fill="white"/>
<path d="M111.394 79.9688H114.998V87.2838L122.036 79.9688H126.966L118.296 88.884L126.966 97.7611H122.036L114.998 90.8651V97.7611H111.394V79.9688Z" fill="white"/>
<path d="M136.451 79.4707C138.808 79.4707 140.701 80.093 142.129 81.3376C143.557 82.5821 144.271 84.322 144.271 86.5571V97.7583H140.667V96.1201C139.466 97.5424 137.686 98.2536 135.329 98.2536C133.38 98.2536 131.833 97.7393 130.688 96.7106C129.544 95.6819 128.971 94.2024 128.971 92.272C128.971 90.8751 129.328 89.7384 130.042 88.8622C130.756 87.9859 131.629 87.3826 132.66 87.0524C133.691 86.7223 134.876 86.5571 136.213 86.5571H140.667C140.667 85.4142 140.282 84.5696 139.511 84.0236C138.74 83.4775 137.732 83.2044 136.485 83.2044C134.332 83.2044 132.983 83.9664 132.439 85.4904H128.597C129.051 83.56 129.997 82.0741 131.436 81.0328C132.875 79.9914 134.547 79.4707 136.451 79.4707ZM140.667 90.7481V89.7956H136.179C133.776 89.7956 132.575 90.6211 132.575 92.272C132.575 93.0848 132.87 93.7135 133.459 94.1579C134.048 94.6024 134.864 94.8247 135.907 94.8247C137.312 94.8247 138.457 94.4627 139.341 93.7389C140.225 93.015 140.667 92.018 140.667 90.7481Z" fill="white"/>
<path d="M152.703 105.531H149.099V79.966H152.703V81.6043C153.904 80.1819 155.57 79.4707 157.701 79.4707C160.172 79.4707 162.138 80.3914 163.6 82.2329C165.062 84.0744 165.793 86.2778 165.793 88.8431C165.793 91.4085 165.062 93.65 163.6 95.4914C162.138 97.3329 160.172 98.2536 157.701 98.2536C155.57 98.2536 153.904 97.5424 152.703 96.1201V105.531ZM154.012 84.6712C153.049 85.6491 152.567 87.0397 152.567 88.8431C152.567 90.6465 153.049 92.0434 154.012 93.034C154.975 94.0246 156.126 94.5199 157.463 94.5199C158.8 94.5199 159.979 93.9674 160.863 92.8626C161.747 91.7577 162.189 90.4179 162.189 88.8431C162.189 87.2683 161.747 85.9666 160.863 84.8617C159.979 83.7569 158.846 83.2044 157.463 83.2044C156.08 83.2044 154.975 83.6934 154.012 84.6712Z" fill="white"/>
<path d="M167.698 83.512V79.9688H183.372V83.512H177.32V97.7611H173.716V83.512H167.698Z" fill="white"/>
<path d="M193.842 79.4707C196.2 79.4707 198.092 80.093 199.52 81.3376C200.948 82.5821 201.662 84.322 201.662 86.5571V97.7583H198.058V96.1201C196.857 97.5424 195.078 98.2536 192.72 98.2536C190.771 98.2536 189.224 97.7393 188.079 96.7106C186.935 95.6819 186.362 94.2024 186.362 92.272C186.362 90.8751 186.719 89.7384 187.433 88.8622C188.147 87.9859 189.02 87.3826 190.051 87.0524C191.083 86.7223 192.267 86.5571 193.604 86.5571H198.058C198.058 85.4142 197.673 84.5696 196.902 84.0236C196.132 83.4775 195.123 83.2044 193.876 83.2044C191.723 83.2044 190.374 83.9664 189.83 85.4904H185.988C186.442 83.56 187.388 82.0741 188.827 81.0328C190.267 79.9914 191.938 79.4707 193.842 79.4707ZM198.058 90.7481V89.7956H193.57C191.168 89.7956 189.966 90.6211 189.966 92.272C189.966 93.0848 190.261 93.7135 190.85 94.1579C191.44 94.6024 192.256 94.8247 193.298 94.8247C194.704 94.8247 195.848 94.4627 196.732 93.7389C197.616 93.015 198.058 92.018 198.058 90.7481Z" fill="white"/>
<path d="M221.552 85.4904H217.778C216.939 83.9664 215.647 83.2044 213.902 83.2044C212.497 83.2044 211.346 83.7378 210.451 84.8046C209.556 85.8714 209.108 87.2175 209.108 88.8431C209.108 90.4687 209.556 91.8212 210.451 92.9007C211.346 93.9801 212.497 94.5199 213.902 94.5199C215.647 94.5199 216.939 93.7579 217.778 92.2339H221.552C220.963 94.0881 219.982 95.5549 218.611 96.6344C217.24 97.7139 215.67 98.2536 213.902 98.2536C211.522 98.2536 209.527 97.3583 207.918 95.5676C206.309 93.7769 205.504 91.5355 205.504 88.8431C205.504 86.1508 206.309 83.9474 207.918 82.1567C209.527 80.366 211.522 79.4707 213.902 79.4707C215.67 79.4707 217.24 80.0104 218.611 81.0899C219.982 82.1694 220.963 83.6362 221.552 85.4904Z" fill="white"/>
<path d="M229.202 85.455H233.724C235.718 85.455 237.248 86.0456 238.314 87.2266C239.379 88.4077 239.912 89.8745 239.912 91.6271C239.912 93.3797 239.385 94.8719 238.331 96.0276C237.277 97.1832 235.741 97.7611 233.724 97.7611H225.598V79.9688H229.202V85.455ZM229.202 94.2178H233.622C234.46 94.2178 235.118 93.9956 235.594 93.5511C236.07 93.1066 236.308 92.4653 236.308 91.6271C236.308 90.7889 236.064 90.1412 235.577 89.684C235.089 89.2268 234.438 88.9983 233.622 88.9983H229.202V94.2178ZM242.496 79.9688H246.1V97.7611H242.496V79.9688Z" fill="white"/>
</svg>
