<svg width="16" height="16" viewBox="0 0 16 16" fill="none" xmlns="http://www.w3.org/2000/svg">
<path d="M1.14663 3.85374C1.05287 3.75997 1 3.63261 1 3.5C1 3.36739 1.05268 3.24021 1.14645 3.14645C1.24021 3.05268 1.36739 3 1.5 3C1.63261 3 1.75979 3.05268 1.85355 3.14645L6 7.29289L8.14645 5.14645C8.34171 4.95118 8.65829 4.95118 8.85355 5.14645L14.8536 11.1464C14.9473 11.2402 15 11.3674 15 11.5C15 11.6326 14.9473 11.7598 14.8536 11.8536C14.7598 11.9473 14.6326 12 14.5 12C14.3674 12 14.2402 11.9473 14.1464 11.8536L8.5 6.20711L6.35355 8.35355C6.25979 8.44732 6.13261 8.5 6 8.5C5.86739 8.5 5.74021 8.44732 5.64645 8.35355L1.14663 3.85374Z" fill="#FF4A00"/>
<path d="M14.5 12H10.5C10.2239 12 10 11.7761 10 11.5C10 11.2239 10.2239 11 10.5 11H14V7.5C14 7.22386 14.2239 7 14.5 7C14.7761 7 15 7.22386 15 7.5V11.5C15 11.7761 14.7761 12 14.5 12Z" fill="#FF4A00"/>
</svg>
