<svg width="16" height="16" viewBox="0 0 16 16" fill="none" xmlns="http://www.w3.org/2000/svg">
<g id="Property 1=up">
<g id="Vector">
<path d="M1.14663 11.1463C1.05287 11.24 1 11.3674 1 11.5C1 11.6326 1.05268 11.7598 1.14645 11.8536C1.24021 11.9473 1.36739 12 1.5 12C1.63261 12 1.75979 11.9473 1.85355 11.8536L6 7.70711L8.14645 9.85355C8.34171 10.0488 8.65829 10.0488 8.85355 9.85355L14.8536 3.85355C14.9473 3.75979 15 3.63261 15 3.5C15 3.36739 14.9473 3.24021 14.8536 3.14645C14.7598 3.05268 14.6326 3 14.5 3C14.3674 3 14.2402 3.05268 14.1464 3.14645L8.5 8.79289L6.35355 6.64645C6.25979 6.55268 6.13261 6.5 6 6.5C5.86739 6.5 5.74021 6.55268 5.64645 6.64645L1.14663 11.1463Z" fill="#718096"/>
<path d="M14.5 3H10.5C10.2239 3 10 3.22386 10 3.5C10 3.77614 10.2239 4 10.5 4H14V7.5C14 7.77614 14.2239 8 14.5 8C14.7761 8 15 7.77614 15 7.5V3.5C15 3.22386 14.7761 3 14.5 3Z" fill="#718096"/>
</g>
</g>
</svg>
